<svg xmlns="http://www.w3.org/2000/svg" xmlns:xlink="http://www.w3.org/1999/xlink" contentStyleType="text/css" data-diagram-type="CLASS" height="1410.9375px" preserveAspectRatio="none" style="width:1682px;height:1410px;background:#FFFFFF;" version="1.1" viewBox="0 0 1682 1410" width="1682.8125px" zoomAndPan="magnify"><defs/><g><!--class System--><g class="entity" data-entity="System" data-source-line="13" data-uid="ent0002" id="entity_System"><rect fill="#FFFFFF" height="341.5771" rx="3.9063" ry="3.9063" style="stroke:#000000;stroke-width:1.5625;" width="288.1134" x="329.0938" y="200.875"/><ellipse cx="438.1582" cy="222.75" fill="#FFFFFF" rx="14.0625" ry="14.0625" style="stroke:#000000;stroke-width:1.5625;"/><path d="M440.1602,227.9014 Q439.6231,228.1699 439.0371,228.292 Q438.4512,228.4385 437.792,228.4385 Q435.4971,228.4385 434.2764,226.9248 Q433.0801,225.4111 433.0801,222.5303 Q433.0801,219.6494 434.2764,218.1357 Q435.4971,216.6221 437.792,216.6221 Q438.4512,216.6221 439.0371,216.7686 Q439.6475,216.8906 440.1602,217.1592 L440.1602,219.6738 Q439.5742,219.1367 439.0127,218.8926 Q438.4756,218.6484 437.9141,218.6484 Q436.669,218.6484 436.0342,219.625 Q435.3994,220.6016 435.3994,222.5303 Q435.3994,224.459 436.0342,225.4355 Q436.669,226.4121 437.9141,226.4121 Q438.4756,226.4121 439.0127,226.168 Q439.5742,225.9238 440.1602,225.3867 L440.1602,227.9014 Z " fill="#000000"/><text fill="#000000" font-family="Verdana" font-size="15.625" lengthAdjust="spacing" textLength="58.2657" x="465.502" y="228.1592">System</text><line style="stroke:#000000;stroke-width:1.5625;" x1="330.6563" x2="615.6447" y1="244.625" y2="244.625"/><text fill="#000000" font-family="Verdana" font-size="15.625" lengthAdjust="spacing" textLength="187.4924" x="338.4688" y="265.3785">-window: GLFWwindow*</text><text fill="#000000" font-family="Verdana" font-size="15.625" lengthAdjust="spacing" textLength="136.1847" x="338.4688" y="283.567">-camera: Camera</text><text fill="#000000" font-family="Verdana" font-size="15.625" lengthAdjust="spacing" textLength="165.6113" x="338.4688" y="301.7554">-mainShader: Shader</text><text fill="#000000" font-family="Verdana" font-size="15.625" lengthAdjust="spacing" textLength="269.3634" x="338.4688" y="319.9439">-sceneObjects: vector&lt;Object3D&gt;</text><text fill="#000000" font-family="Verdana" font-size="15.625" lengthAdjust="spacing" textLength="213.8596" x="338.4688" y="338.1324">-projeteis: vector&lt;Projetil&gt;</text><text fill="#000000" font-family="Verdana" font-size="15.625" lengthAdjust="spacing" textLength="115.0131" x="338.4688" y="356.3209">-lightPos: vec3</text><text fill="#000000" font-family="Verdana" font-size="15.625" lengthAdjust="spacing" textLength="128.685" x="338.4688" y="374.5093">-lightColor: vec3</text><text fill="#000000" font-family="Verdana" font-size="15.625" lengthAdjust="spacing" textLength="137.3672" x="338.4688" y="392.6978">-fogEnabled: bool</text><line style="stroke:#000000;stroke-width:1.5625;" x1="330.6563" x2="615.6447" y1="402.6328" y2="402.6328"/><text fill="#000000" font-family="Verdana" font-size="15.625" lengthAdjust="spacing" textLength="179.2679" x="338.4688" y="423.3863">+initializeGLFW(): bool</text><text fill="#000000" font-family="Verdana" font-size="15.625" lengthAdjust="spacing" textLength="196.5637" x="338.4688" y="441.5748">+initializeOpenGL(): bool</text><text fill="#000000" font-family="Verdana" font-size="15.625" lengthAdjust="spacing" textLength="165.7791" x="338.4688" y="459.7632">+loadShaders(): bool</text><text fill="#000000" font-family="Verdana" font-size="15.625" lengthAdjust="spacing" textLength="208.9539" x="338.4688" y="477.9517">+loadSceneObjects(): bool</text><text fill="#000000" font-family="Verdana" font-size="15.625" lengthAdjust="spacing" textLength="169.426" x="338.4688" y="496.1402">+processInput(): void</text><text fill="#000000" font-family="Verdana" font-size="15.625" lengthAdjust="spacing" textLength="120.4758" x="338.4688" y="514.3287">+render(): void</text><text fill="#000000" font-family="Verdana" font-size="15.625" lengthAdjust="spacing" textLength="126.4572" x="338.4688" y="532.5172">+disparo(): void</text></g><!--class Shader--><g class="entity" data-entity="Shader" data-source-line="33" data-uid="ent0003" id="entity_Shader"><rect fill="#FFFFFF" height="123.3154" rx="3.9063" ry="3.9063" style="stroke:#000000;stroke-width:1.5625;" width="216.0004" x="354.2188" y="683.7969"/><ellipse cx="428.6839" cy="705.6719" fill="#FFFFFF" rx="14.0625" ry="14.0625" style="stroke:#000000;stroke-width:1.5625;"/><path d="M430.6859,710.8232 Q430.1488,711.0918 429.5628,711.2139 Q428.9769,711.3604 428.3177,711.3604 Q426.0228,711.3604 424.8021,709.8467 Q423.6058,708.333 423.6058,705.4521 Q423.6058,702.5713 424.8021,701.0576 Q426.0228,699.5439 428.3177,699.5439 Q428.9769,699.5439 429.5628,699.6904 Q430.1732,699.8125 430.6859,700.0811 L430.6859,702.5957 Q430.0999,702.0586 429.5384,701.8145 Q429.0013,701.5703 428.4398,701.5703 Q427.1947,701.5703 426.5599,702.5469 Q425.9251,703.5234 425.9251,705.4521 Q425.9251,707.3809 426.5599,708.3574 Q427.1947,709.334 428.4398,709.334 Q429.0013,709.334 429.5384,709.0898 Q430.0999,708.8457 430.6859,708.3086 L430.6859,710.8232 Z " fill="#000000"/><text fill="#000000" font-family="Verdana" font-size="15.625" lengthAdjust="spacing" textLength="55.3513" x="456.0277" y="711.0811">Shader</text><line style="stroke:#000000;stroke-width:1.5625;" x1="355.7813" x2="568.6566" y1="727.5469" y2="727.5469"/><text fill="#000000" font-family="Verdana" font-size="15.625" lengthAdjust="spacing" textLength="136.94" x="363.5938" y="748.3004">+ID: unsigned int</text><line style="stroke:#000000;stroke-width:1.5625;" x1="355.7813" x2="568.6566" y1="758.2354" y2="758.2354"/><text fill="#000000" font-family="Verdana" font-size="15.625" lengthAdjust="spacing" textLength="96.2372" x="363.5938" y="778.9888">+use(): void</text><text fill="#000000" font-family="Verdana" font-size="15.625" lengthAdjust="spacing" textLength="197.2504" x="363.5938" y="797.1773">+loadFromStrings(): bool</text></g><!--class Projetil--><g class="entity" data-entity="Projetil" data-source-line="41" data-uid="ent0004" id="entity_Projetil"><rect fill="#FFFFFF" height="177.8809" rx="3.9063" ry="3.9063" style="stroke:#000000;stroke-width:1.5625;" width="220.6772" x="625.3125" y="656.5156"/><ellipse cx="702.7074" cy="678.3906" fill="#FFFFFF" rx="14.0625" ry="14.0625" style="stroke:#000000;stroke-width:1.5625;"/><path d="M704.7093,683.542 Q704.1722,683.8105 703.5863,683.9326 Q703.0003,684.0791 702.3412,684.0791 Q700.0462,684.0791 698.8255,682.5654 Q697.6292,681.0518 697.6292,678.1709 Q697.6292,675.29 698.8255,673.7764 Q700.0462,672.2627 702.3412,672.2627 Q703.0003,672.2627 703.5863,672.4092 Q704.1966,672.5312 704.7093,672.7998 L704.7093,675.3145 Q704.1234,674.7773 703.5619,674.5332 Q703.0247,674.2891 702.4632,674.2891 Q701.2181,674.2891 700.5833,675.2656 Q699.9486,676.2422 699.9486,678.1709 Q699.9486,680.0996 700.5833,681.0762 Q701.2181,682.0527 702.4632,682.0527 Q703.0247,682.0527 703.5619,681.8086 Q704.1234,681.5645 704.7093,681.0273 L704.7093,683.542 Z " fill="#000000"/><text fill="#000000" font-family="Verdana" font-size="15.625" lengthAdjust="spacing" textLength="54.1687" x="730.0511" y="683.7999">Projetil</text><line style="stroke:#000000;stroke-width:1.5625;" x1="626.875" x2="844.4272" y1="700.2656" y2="700.2656"/><text fill="#000000" font-family="Verdana" font-size="15.625" lengthAdjust="spacing" textLength="122.6044" x="634.6875" y="721.0191">+position: vec3</text><text fill="#000000" font-family="Verdana" font-size="15.625" lengthAdjust="spacing" textLength="129.5319" x="634.6875" y="739.2076">+direction: vec3</text><text fill="#000000" font-family="Verdana" font-size="15.625" lengthAdjust="spacing" textLength="105.629" x="634.6875" y="757.3961">+speed: float</text><line style="stroke:#000000;stroke-width:1.5625;" x1="626.875" x2="844.4272" y1="767.3311" y2="767.3311"/><text fill="#000000" font-family="Verdana" font-size="15.625" lengthAdjust="spacing" textLength="201.9272" x="634.6875" y="788.0845">+update(deltaTime): void</text><text fill="#000000" font-family="Verdana" font-size="15.625" lengthAdjust="spacing" textLength="160.8505" x="634.6875" y="806.273">+draw(shader): void</text><text fill="#000000" font-family="Verdana" font-size="15.625" lengthAdjust="spacing" textLength="129.982" x="634.6875" y="824.4615">+isActive(): bool</text></g><!--class Camera--><g class="entity" data-entity="Camera" data-source-line="51" data-uid="ent0005" id="entity_Camera"><rect fill="#FFFFFF" height="177.8809" rx="3.9063" ry="3.9063" style="stroke:#000000;stroke-width:1.5625;" width="280.6824" x="18.75" y="656.5156"/><ellipse cx="122.5731" cy="678.3906" fill="#FFFFFF" rx="14.0625" ry="14.0625" style="stroke:#000000;stroke-width:1.5625;"/><path d="M124.575,683.542 Q124.0379,683.8105 123.452,683.9326 Q122.8661,684.0791 122.2069,684.0791 Q119.912,684.0791 118.6913,682.5654 Q117.495,681.0518 117.495,678.1709 Q117.495,675.29 118.6913,673.7764 Q119.912,672.2627 122.2069,672.2627 Q122.8661,672.2627 123.452,672.4092 Q124.0623,672.5312 124.575,672.7998 L124.575,675.3145 Q123.9891,674.7773 123.4276,674.5332 Q122.8905,674.2891 122.3289,674.2891 Q121.0838,674.2891 120.4491,675.2656 Q119.8143,676.2422 119.8143,678.1709 Q119.8143,680.0996 120.4491,681.0762 Q121.0838,682.0527 122.3289,682.0527 Q122.8905,682.0527 123.4276,681.8086 Q123.9891,681.5645 124.575,681.0273 L124.575,683.542 Z " fill="#000000"/><text fill="#000000" font-family="Verdana" font-size="15.625" lengthAdjust="spacing" textLength="61.3174" x="149.9168" y="683.7999">Camera</text><line style="stroke:#000000;stroke-width:1.5625;" x1="20.3125" x2="297.8699" y1="700.2656" y2="700.2656"/><text fill="#000000" font-family="Verdana" font-size="15.625" lengthAdjust="spacing" textLength="122.1085" x="28.125" y="721.0191">+Position: vec3</text><text fill="#000000" font-family="Verdana" font-size="15.625" lengthAdjust="spacing" textLength="101.7151" x="28.125" y="739.2076">+Front: vec3</text><text fill="#000000" font-family="Verdana" font-size="15.625" lengthAdjust="spacing" textLength="82.0694" x="28.125" y="757.3961">+Up: vec3</text><line style="stroke:#000000;stroke-width:1.5625;" x1="20.3125" x2="297.8699" y1="767.3311" y2="767.3311"/><text fill="#000000" font-family="Verdana" font-size="15.625" lengthAdjust="spacing" textLength="202.9724" x="28.125" y="788.0845">+ProcessKeyboard(): void</text><text fill="#000000" font-family="Verdana" font-size="15.625" lengthAdjust="spacing" textLength="261.9324" x="28.125" y="806.273">+ProcessMouseMovement(): void</text><text fill="#000000" font-family="Verdana" font-size="15.625" lengthAdjust="spacing" textLength="190.8417" x="28.125" y="824.4615">+GetViewMatrix(): mat4</text></g><!--class Object3D--><g class="entity" data-entity="Object3D" data-source-line="62" data-uid="ent0006" id="entity_Object3D"><rect fill="#FFFFFF" height="214.2578" rx="3.9063" ry="3.9063" style="stroke:#000000;stroke-width:1.5625;" width="207.4478" x="764.75" y="264.5312"/><ellipse cx="826.1842" cy="286.4062" fill="#FFFFFF" rx="14.0625" ry="14.0625" style="stroke:#000000;stroke-width:1.5625;"/><path d="M828.1861,291.5576 Q827.649,291.8262 827.0631,291.9482 Q826.4771,292.0947 825.818,292.0947 Q823.523,292.0947 822.3023,290.5811 Q821.106,289.0674 821.106,286.1865 Q821.106,283.3057 822.3023,281.792 Q823.523,280.2783 825.818,280.2783 Q826.4771,280.2783 827.0631,280.4248 Q827.6734,280.5469 828.1861,280.8154 L828.1861,283.3301 Q827.6002,282.793 827.0387,282.5488 Q826.5016,282.3047 825.94,282.3047 Q824.6949,282.3047 824.0602,283.2812 Q823.4254,284.2578 823.4254,286.1865 Q823.4254,288.1152 824.0602,289.0918 Q824.6949,290.0684 825.94,290.0684 Q826.5016,290.0684 827.0387,289.8242 Q827.6002,289.5801 828.1861,289.043 L828.1861,291.5576 Z " fill="#000000"/><text fill="#000000" font-family="Verdana" font-size="15.625" lengthAdjust="spacing" textLength="72.8607" x="853.5279" y="291.8155">Object3D</text><line style="stroke:#000000;stroke-width:1.5625;" x1="766.3125" x2="970.6353" y1="308.2812" y2="308.2812"/><text fill="#000000" font-family="Verdana" font-size="15.625" lengthAdjust="spacing" textLength="112.4878" x="774.125" y="329.0347">+name: string</text><text fill="#000000" font-family="Verdana" font-size="15.625" lengthAdjust="spacing" textLength="115.1505" x="774.125" y="347.2232">-position: vec3</text><text fill="#000000" font-family="Verdana" font-size="15.625" lengthAdjust="spacing" textLength="114.8758" x="774.125" y="365.4117">-rotation: vec3</text><text fill="#000000" font-family="Verdana" font-size="15.625" lengthAdjust="spacing" textLength="93.5211" x="774.125" y="383.6002">-scale: vec3</text><text fill="#000000" font-family="Verdana" font-size="15.625" lengthAdjust="spacing" textLength="99.884" x="774.125" y="401.7886">-mesh: Mesh</text><line style="stroke:#000000;stroke-width:1.5625;" x1="766.3125" x2="970.6353" y1="411.7236" y2="411.7236"/><text fill="#000000" font-family="Verdana" font-size="15.625" lengthAdjust="spacing" textLength="188.6978" x="774.125" y="432.4771">+loadObject(path): bool</text><text fill="#000000" font-family="Verdana" font-size="15.625" lengthAdjust="spacing" textLength="174.0494" x="774.125" y="450.6656">+render(shader): void</text><text fill="#000000" font-family="Verdana" font-size="15.625" lengthAdjust="spacing" textLength="153.8544" x="774.125" y="468.8541">+setPosition(): void</text></g><!--class Mesh--><g class="entity" data-entity="Mesh" data-source-line="74" data-uid="ent0007" id="entity_Mesh"><rect fill="#FFFFFF" height="123.3154" rx="3.9063" ry="3.9063" style="stroke:#000000;stroke-width:1.5625;" width="212.1399" x="901.4531" y="683.7969"/><ellipse cx="981.0948" cy="705.6719" fill="#FFFFFF" rx="14.0625" ry="14.0625" style="stroke:#000000;stroke-width:1.5625;"/><path d="M983.0968,710.8232 Q982.5597,711.0918 981.9738,711.2139 Q981.3878,711.3604 980.7286,711.3604 Q978.4337,711.3604 977.213,709.8467 Q976.0167,708.333 976.0167,705.4521 Q976.0167,702.5713 977.213,701.0576 Q978.4337,699.5439 980.7286,699.5439 Q981.3878,699.5439 981.9738,699.6904 Q982.5841,699.8125 983.0968,700.0811 L983.0968,702.5957 Q982.5109,702.0586 981.9493,701.8145 Q981.4122,701.5703 980.8507,701.5703 Q979.6056,701.5703 978.9708,702.5469 Q978.3361,703.5234 978.3361,705.4521 Q978.3361,707.3809 978.9708,708.3574 Q979.6056,709.334 980.8507,709.334 Q981.4122,709.334 981.9493,709.0898 Q982.5109,708.8457 983.0968,708.3086 L983.0968,710.8232 Z " fill="#000000"/><text fill="#000000" font-family="Verdana" font-size="15.625" lengthAdjust="spacing" textLength="41.1377" x="1008.4386" y="711.0811">Mesh</text><line style="stroke:#000000;stroke-width:1.5625;" x1="903.0156" x2="1112.0305" y1="727.5469" y2="727.5469"/><text fill="#000000" font-family="Verdana" font-size="15.625" lengthAdjust="spacing" textLength="193.3899" x="910.8281" y="748.3004">-groups: vector&lt;Group&gt;</text><line style="stroke:#000000;stroke-width:1.5625;" x1="903.0156" x2="1112.0305" y1="758.2354" y2="758.2354"/><text fill="#000000" font-family="Verdana" font-size="15.625" lengthAdjust="spacing" textLength="145.9045" x="910.8281" y="778.9888">+addGroup(): void</text><text fill="#000000" font-family="Verdana" font-size="15.625" lengthAdjust="spacing" textLength="120.4758" x="910.8281" y="797.1773">+render(): void</text></g><!--class Group--><g class="entity" data-entity="Group" data-source-line="81" data-uid="ent0008" id="entity_Group"><rect fill="#FFFFFF" height="196.0693" rx="3.9063" ry="3.9063" style="stroke:#000000;stroke-width:1.5625;" width="244.6716" x="1186.75" y="948.4531"/><ellipse cx="1279.2701" cy="970.3281" fill="#FFFFFF" rx="14.0625" ry="14.0625" style="stroke:#000000;stroke-width:1.5625;"/><path d="M1281.2721,975.4795 Q1280.735,975.748 1280.149,975.8701 Q1279.5631,976.0166 1278.9039,976.0166 Q1276.609,976.0166 1275.3883,974.5029 Q1274.192,972.9893 1274.192,970.1084 Q1274.192,967.2275 1275.3883,965.7139 Q1276.609,964.2002 1278.9039,964.2002 Q1279.5631,964.2002 1280.149,964.3467 Q1280.7594,964.4688 1281.2721,964.7373 L1281.2721,967.252 Q1280.6862,966.7148 1280.1246,966.4707 Q1279.5875,966.2266 1279.026,966.2266 Q1277.7809,966.2266 1277.1461,967.2031 Q1276.5114,968.1797 1276.5114,970.1084 Q1276.5114,972.0371 1277.1461,973.0137 Q1277.7809,973.9902 1279.026,973.9902 Q1279.5875,973.9902 1280.1246,973.7461 Q1280.6862,973.502 1281.2721,972.9648 L1281.2721,975.4795 Z " fill="#000000"/><text fill="#000000" font-family="Verdana" font-size="15.625" lengthAdjust="spacing" textLength="47.9126" x="1306.6139" y="975.7374">Group</text><line style="stroke:#000000;stroke-width:1.5625;" x1="1188.3125" x2="1429.8591" y1="992.2031" y2="992.2031"/><text fill="#000000" font-family="Verdana" font-size="15.625" lengthAdjust="spacing" textLength="190.1627" x="1196.125" y="1012.9566">-VAO, VBO: unsigned int</text><text fill="#000000" font-family="Verdana" font-size="15.625" lengthAdjust="spacing" textLength="144.5618" x="1196.125" y="1031.1451">-material: Material</text><text fill="#000000" font-family="Verdana" font-size="15.625" lengthAdjust="spacing" textLength="186.5387" x="1196.125" y="1049.3336">-textureID: unsigned int</text><text fill="#000000" font-family="Verdana" font-size="15.625" lengthAdjust="spacing" textLength="169.7998" x="1196.125" y="1067.522">-faces: vector&lt;Face&gt;</text><line style="stroke:#000000;stroke-width:1.5625;" x1="1188.3125" x2="1429.8591" y1="1077.457" y2="1077.457"/><text fill="#000000" font-family="Verdana" font-size="15.625" lengthAdjust="spacing" textLength="168.0832" x="1196.125" y="1098.2105">+setupBuffers(): void</text><text fill="#000000" font-family="Verdana" font-size="15.625" lengthAdjust="spacing" textLength="225.9216" x="1196.125" y="1116.399">+loadMaterialTexture(): void</text><text fill="#000000" font-family="Verdana" font-size="15.625" lengthAdjust="spacing" textLength="120.4758" x="1196.125" y="1134.5875">+render(): void</text></g><!--class Face--><g class="entity" data-entity="Face" data-source-line="92" data-uid="ent0009" id="entity_Face"><rect fill="#FFFFFF" height="141.5039" rx="3.9063" ry="3.9063" style="stroke:#000000;stroke-width:1.5625;" width="250.3555" x="1183.9063" y="1258.5938"/><ellipse cx="1284.8416" cy="1280.4688" fill="#FFFFFF" rx="14.0625" ry="14.0625" style="stroke:#000000;stroke-width:1.5625;"/><path d="M1286.8436,1285.6201 Q1286.3065,1285.8887 1285.7205,1286.0107 Q1285.1346,1286.1572 1284.4754,1286.1572 Q1282.1805,1286.1572 1280.9598,1284.6436 Q1279.7635,1283.1299 1279.7635,1280.249 Q1279.7635,1277.3682 1280.9598,1275.8545 Q1282.1805,1274.3408 1284.4754,1274.3408 Q1285.1346,1274.3408 1285.7205,1274.4873 Q1286.3309,1274.6094 1286.8436,1274.8779 L1286.8436,1277.3926 Q1286.2576,1276.8555 1285.6961,1276.6113 Q1285.159,1276.3672 1284.5975,1276.3672 Q1283.3524,1276.3672 1282.7176,1277.3438 Q1282.0828,1278.3203 1282.0828,1280.249 Q1282.0828,1282.1777 1282.7176,1283.1543 Q1283.3524,1284.1309 1284.5975,1284.1309 Q1285.159,1284.1309 1285.6961,1283.8867 Q1286.2576,1283.6426 1286.8436,1283.1055 L1286.8436,1285.6201 Z " fill="#000000"/><text fill="#000000" font-family="Verdana" font-size="15.625" lengthAdjust="spacing" textLength="36.7661" x="1312.1854" y="1285.878">Face</text><line style="stroke:#000000;stroke-width:1.5625;" x1="1185.4688" x2="1432.6993" y1="1302.3438" y2="1302.3438"/><text fill="#000000" font-family="Verdana" font-size="15.625" lengthAdjust="spacing" textLength="224.823" x="1193.2813" y="1323.0972">+vertexIndices: vector&lt;int&gt;</text><text fill="#000000" font-family="Verdana" font-size="15.625" lengthAdjust="spacing" textLength="231.6055" x="1193.2813" y="1341.2857">+textureIndices: vector&lt;int&gt;</text><text fill="#000000" font-family="Verdana" font-size="15.625" lengthAdjust="spacing" textLength="229.5761" x="1193.2813" y="1359.4742">+normalIndices: vector&lt;int&gt;</text><line style="stroke:#000000;stroke-width:1.5625;" x1="1185.4688" x2="1432.6993" y1="1369.4092" y2="1369.4092"/><text fill="#000000" font-family="Verdana" font-size="15.625" lengthAdjust="spacing" textLength="149.704" x="1193.2813" y="1390.1627">+addVertex(): void</text></g><!--class Material--><g class="entity" data-entity="Material" data-source-line="100" data-uid="ent0010" id="entity_Material"><rect fill="#FFFFFF" height="159.6924" rx="3.9063" ry="3.9063" style="stroke:#000000;stroke-width:1.5625;" width="149.617" x="1504.5938" y="665.6094"/><ellipse cx="1543.9819" cy="687.4844" fill="#FFFFFF" rx="14.0625" ry="14.0625" style="stroke:#000000;stroke-width:1.5625;"/><path d="M1545.9839,692.6357 Q1545.4468,692.9043 1544.8609,693.0264 Q1544.2749,693.1729 1543.6157,693.1729 Q1541.3208,693.1729 1540.1001,691.6592 Q1538.9038,690.1455 1538.9038,687.2646 Q1538.9038,684.3838 1540.1001,682.8701 Q1541.3208,681.3564 1543.6157,681.3564 Q1544.2749,681.3564 1544.8609,681.5029 Q1545.4712,681.625 1545.9839,681.8936 L1545.9839,684.4082 Q1545.398,683.8711 1544.8364,683.627 Q1544.2993,683.3828 1543.7378,683.3828 Q1542.4927,683.3828 1541.8579,684.3594 Q1541.2232,685.3359 1541.2232,687.2646 Q1541.2232,689.1934 1541.8579,690.1699 Q1542.4927,691.1465 1543.7378,691.1465 Q1544.2993,691.1465 1544.8364,690.9023 Q1545.398,690.6582 1545.9839,690.1211 L1545.9839,692.6357 Z " fill="#000000"/><text fill="#000000" font-family="Verdana" font-size="15.625" lengthAdjust="spacing" textLength="63.4766" x="1566.971" y="692.8936">Material</text><line style="stroke:#000000;stroke-width:1.5625;" x1="1506.1563" x2="1652.6483" y1="709.3594" y2="709.3594"/><text fill="#000000" font-family="Verdana" font-size="15.625" lengthAdjust="spacing" textLength="80.5359" x="1513.9688" y="730.1129">+Ka: vec3</text><text fill="#000000" font-family="Verdana" font-size="15.625" lengthAdjust="spacing" textLength="80.8792" x="1513.9688" y="748.3013">+Kd: vec3</text><text fill="#000000" font-family="Verdana" font-size="15.625" lengthAdjust="spacing" textLength="79.1016" x="1513.9688" y="766.4898">+Ks: vec3</text><text fill="#000000" font-family="Verdana" font-size="15.625" lengthAdjust="spacing" textLength="78.2547" x="1513.9688" y="784.6783">+Ns: float</text><text fill="#000000" font-family="Verdana" font-size="15.625" lengthAdjust="spacing" textLength="130.867" x="1513.9688" y="802.8668">+map_Kd: string</text><line style="stroke:#000000;stroke-width:1.5625;" x1="1506.1563" x2="1652.6483" y1="812.8018" y2="812.8018"/></g><!--class OBJReader--><g class="entity" data-entity="OBJReader" data-source-line="109" data-uid="ent0011" id="entity_OBJReader"><rect fill="#FFFFFF" height="105.127" rx="3.9063" ry="3.9063" style="stroke:#000000;stroke-width:1.5625;" width="282.1091" x="1238.3438" y="319.0937"/><ellipse cx="1331.726" cy="340.9687" fill="#FFFFFF" rx="14.0625" ry="14.0625" style="stroke:#000000;stroke-width:1.5625;"/><path d="M1333.728,346.1201 Q1333.1909,346.3887 1332.6049,346.5107 Q1332.019,346.6572 1331.3598,346.6572 Q1329.0649,346.6572 1327.8442,345.1436 Q1326.6479,343.6299 1326.6479,340.749 Q1326.6479,337.8682 1327.8442,336.3545 Q1329.0649,334.8408 1331.3598,334.8408 Q1332.019,334.8408 1332.6049,334.9873 Q1333.2153,335.1094 1333.728,335.3779 L1333.728,337.8926 Q1333.142,337.3555 1332.5805,337.1113 Q1332.0434,336.8672 1331.4819,336.8672 Q1330.2368,336.8672 1329.602,337.8437 Q1328.9672,338.8203 1328.9672,340.749 Q1328.9672,342.6777 1329.602,343.6543 Q1330.2368,344.6309 1331.4819,344.6309 Q1332.0434,344.6309 1332.5805,344.3867 Q1333.142,344.1426 1333.728,343.6055 L1333.728,346.1201 Z " fill="#000000"/><text fill="#000000" font-family="Verdana" font-size="15.625" lengthAdjust="spacing" textLength="83.6258" x="1359.0698" y="346.378">OBJReader</text><line style="stroke:#000000;stroke-width:1.5625;" x1="1239.9063" x2="1518.8903" y1="362.8437" y2="362.8437"/><line style="stroke:#000000;stroke-width:1.5625;" x1="1239.9063" x2="1518.8903" y1="375.3437" y2="375.3437"/><text fill="#000000" font-family="Verdana" font-size="15.625" lengthAdjust="spacing" text-decoration="underline" textLength="173.1949" x="1247.7188" y="396.0972">+loadOBJ(path): Mesh</text><text fill="#000000" font-family="Verdana" font-size="15.625" lengthAdjust="spacing" text-decoration="underline" textLength="263.3591" x="1247.7188" y="414.2857">-parseMTL(path): map&lt;Material&gt;</text></g><!--class Texture--><g class="entity" data-entity="Texture" data-source-line="114" data-uid="ent0012" id="entity_Texture"><rect fill="#FFFFFF" height="86.9385" rx="3.9063" ry="3.9063" style="stroke:#000000;stroke-width:1.5625;" width="280.629" x="1168.7813" y="701.9844"/><ellipse cx="1273.0011" cy="723.8594" fill="#FFFFFF" rx="14.0625" ry="14.0625" style="stroke:#000000;stroke-width:1.5625;"/><path d="M1275.003,729.0107 Q1274.4659,729.2793 1273.88,729.4014 Q1273.294,729.5479 1272.6349,729.5479 Q1270.3399,729.5479 1269.1192,728.0342 Q1267.9229,726.5205 1267.9229,723.6396 Q1267.9229,720.7588 1269.1192,719.2451 Q1270.3399,717.7314 1272.6349,717.7314 Q1273.294,717.7314 1273.88,717.8779 Q1274.4903,718 1275.003,718.2686 L1275.003,720.7832 Q1274.4171,720.2461 1273.8556,720.002 Q1273.3185,719.7578 1272.7569,719.7578 Q1271.5118,719.7578 1270.877,720.7344 Q1270.2423,721.7109 1270.2423,723.6396 Q1270.2423,725.5684 1270.877,726.5449 Q1271.5118,727.5215 1272.7569,727.5215 Q1273.3185,727.5215 1273.8556,727.2773 Q1274.4171,727.0332 1275.003,726.4961 L1275.003,729.0107 Z " fill="#000000"/><text fill="#000000" font-family="Verdana" font-size="15.625" lengthAdjust="spacing" textLength="60.4706" x="1300.3448" y="729.2686">Texture</text><line style="stroke:#000000;stroke-width:1.5625;" x1="1170.3438" x2="1447.8477" y1="745.7344" y2="745.7344"/><line style="stroke:#000000;stroke-width:1.5625;" x1="1170.3438" x2="1447.8477" y1="758.2344" y2="758.2344"/><text fill="#000000" font-family="Verdana" font-size="15.625" lengthAdjust="spacing" text-decoration="underline" textLength="261.879" x="1178.1563" y="778.9879">+loadTexture(path): unsigned int</text></g><g class="entity" data-entity="GMN25" data-source-line="134" data-uid="ent0026" id="entity_GMN25"><path d="M37.5781,336.5625 L37.5781,406.7529 A0,0 0 0 0 37.5781,406.7529 L274.3472,406.7529 A0,0 0 0 0 274.3472,406.7529 L274.3472,377.9062 L328.3438,371.6562 L274.3472,365.4062 L274.3472,352.1875 L258.7222,336.5625 L37.5781,336.5625 A0,0 0 0 0 37.5781,336.5625" fill="#F5F5F5" style="stroke:#CCCCCC;stroke-width:1.5625;"/><path d="M258.7222,336.5625 L258.7222,352.1875 L274.3472,352.1875 L258.7222,336.5625" fill="#F5F5F5" style="stroke:#CCCCCC;stroke-width:1.5625;"/><text fill="#000000" font-family="Verdana" font-size="15.625" font-weight="bold" lengthAdjust="spacing" textLength="126.2665" x="46.9531" y="358.8785">Classe Central</text><text fill="#000000" font-family="Verdana" font-size="15.625" lengthAdjust="spacing" textLength="198.5168" x="46.9531" y="377.067">Gerencia janela, entrada,</text><text fill="#000000" font-family="Verdana" font-size="15.625" lengthAdjust="spacing" textLength="203.9566" x="46.9531" y="395.2554">renderiza&#231;&#227;o e game loop</text></g><g class="entity" data-entity="GMN28" data-source-line="140" data-uid="ent0029" id="entity_GMN28"><path d="M711.7188,17.1875 L711.7188,105.5664 A0,0 0 0 0 711.7188,105.5664 L862.2188,105.5664 L868.4688,264.0781 L874.7188,105.5664 L1025.2167,105.5664 A0,0 0 0 0 1025.2167,105.5664 L1025.2167,32.8125 L1009.5917,17.1875 L711.7188,17.1875 A0,0 0 0 0 711.7188,17.1875" fill="#F5F5F5" style="stroke:#CCCCCC;stroke-width:1.5625;"/><path d="M1009.5917,17.1875 L1009.5917,32.8125 L1025.2167,32.8125 L1009.5917,17.1875" fill="#F5F5F5" style="stroke:#CCCCCC;stroke-width:1.5625;"/><text fill="#000000" font-family="Verdana" font-size="15.625" font-weight="bold" lengthAdjust="spacing" textLength="193.779" x="721.0938" y="39.5035">Hierarquia de Objetos</text><text fill="#000000" font-family="Verdana" font-size="15.625" lengthAdjust="spacing" textLength="267.7536" x="721.0938" y="57.692">Object3D &#8594; Mesh &#8594; Group &#8594; Face</text><text fill="#000000" font-family="Verdana" font-size="15.625" lengthAdjust="spacing" textLength="280.6854" x="721.0938" y="75.8804">Cada Group tem Material + Textura</text><text fill="#000000" font-family="Verdana" font-size="15.625" lengthAdjust="spacing" textLength="245.8267" x="721.0938" y="94.0689">Face define tri&#226;ngulos (&#237;ndices)</text></g><g class="entity" data-entity="GMN31" data-source-line="147" data-uid="ent0032" id="entity_GMN31"><path d="M1486.7813,993.2031 L1486.7813,1099.7705 A0,0 0 0 0 1486.7813,1099.7705 L1672.0291,1099.7705 A0,0 0 0 0 1672.0291,1099.7705 L1672.0291,1008.8281 L1656.4041,993.2031 L1585.6563,993.2031 L1579.4063,826.0781 L1573.1563,993.2031 L1486.7813,993.2031 A0,0 0 0 0 1486.7813,993.2031" fill="#F5F5F5" style="stroke:#CCCCCC;stroke-width:1.5625;"/><path d="M1656.4041,993.2031 L1656.4041,1008.8281 L1672.0291,1008.8281 L1656.4041,993.2031" fill="#F5F5F5" style="stroke:#CCCCCC;stroke-width:1.5625;"/><text fill="#000000" font-family="Verdana" font-size="15.625" font-weight="bold" lengthAdjust="spacing" textLength="152.4353" x="1496.1563" y="1015.5191">Modelo de Phong</text><text fill="#000000" font-family="Verdana" font-size="15.625" lengthAdjust="spacing" textLength="105.4764" x="1496.1563" y="1033.7076">Ka: Ambiente</text><text fill="#000000" font-family="Verdana" font-size="15.625" lengthAdjust="spacing" textLength="79.8721" x="1496.1563" y="1051.8961">Kd: Difuso</text><text fill="#000000" font-family="Verdana" font-size="15.625" lengthAdjust="spacing" textLength="104.9957" x="1496.1563" y="1070.0845">Ks: Especular</text><text fill="#000000" font-family="Verdana" font-size="15.625" lengthAdjust="spacing" textLength="104.2633" x="1496.1563" y="1088.273">Ns: Shininess</text></g><!--reverse link System to Projetil--><g class="link" data-entity-1="System" data-entity-2="Projetil" data-source-line="119" data-uid="lnk13" id="link_System_Projetil"><path codeLine="119" d="M604.1012,558.1301 C631.7731,597.2083 649.2813,621.9219 673.3125,655.8594" fill="none" id="System-backto-Projetil" style="stroke:#000000;stroke-width:1.5625;"/><polygon fill="#000000" points="593.2656,542.8281,593.5828,554.091,604.1012,558.1301,603.7841,546.8673,593.2656,542.8281" style="stroke:#000000;stroke-width:1.5625;"/><text fill="#000000" font-family="Verdana" font-size="15.625" lengthAdjust="spacing" textLength="67.9779" x="637.2188" y="605.3941">gerencia</text><text fill="#000000" font-family="Verdana" font-size="15.625" lengthAdjust="spacing" textLength="9.9411" x="591.6649" y="569.4427">1</text><text fill="#000000" font-family="Verdana" font-size="15.625" lengthAdjust="spacing" textLength="7.8125" x="656.5983" y="640.0483">*</text></g><!--reverse link System to Shader--><g class="link" data-entity-1="System" data-entity-2="Shader" data-source-line="120" data-uid="lnk14" id="link_System_Shader"><path codeLine="120" d="M467.6014,561.5699 C466.117,611.7105 465.1406,644.6406 464.0156,683.0625" fill="none" id="System-backto-Shader" style="stroke:#000000;stroke-width:1.5625;"/><polygon fill="#000000" points="468.1563,542.8281,461.6316,552.0141,467.6014,561.5699,474.1261,552.384,468.1563,542.8281" style="stroke:#000000;stroke-width:1.5625;"/><text fill="#000000" font-family="Verdana" font-size="15.625" lengthAdjust="spacing" textLength="27.6184" x="468.4688" y="605.3941">usa</text><text fill="#000000" font-family="Verdana" font-size="15.625" lengthAdjust="spacing" textLength="9.9411" x="458.1498" y="569.4427">1</text><text fill="#000000" font-family="Verdana" font-size="15.625" lengthAdjust="spacing" textLength="9.9411" x="454.1761" y="667.8233">1</text></g><!--reverse link System to Camera--><g class="link" data-entity-1="System" data-entity-2="Camera" data-source-line="121" data-uid="lnk15" id="link_System_Camera"><path codeLine="121" d="M317.3325,557.1338 C284.2231,596.2119 262.4375,621.9219 233.6719,655.8594" fill="none" id="System-backto-Camera" style="stroke:#000000;stroke-width:1.5625;"/><polygon fill="#000000" points="329.4531,542.8281,318.6242,545.9407,317.3325,557.1338,328.1614,554.0212,329.4531,542.8281" style="stroke:#000000;stroke-width:1.5625;"/><text fill="#000000" font-family="Verdana" font-size="15.625" lengthAdjust="spacing" textLength="59.0134" x="290.3438" y="605.3941">cont&#233;m</text><text fill="#000000" font-family="Verdana" font-size="15.625" lengthAdjust="spacing" textLength="9.9411" x="310.1275" y="569.4427">1</text><text fill="#000000" font-family="Verdana" font-size="15.625" lengthAdjust="spacing" textLength="9.9411" x="233.7268" y="640.0483">1</text></g><!--reverse link System to Object3D--><g class="link" data-entity-1="System" data-entity-2="Object3D" data-source-line="123" data-uid="lnk16" id="link_System_Object3D"><path codeLine="123" d="M636.2969,371.6562 C684.8281,371.6562 719.2188,371.6562 764.0625,371.6562" fill="none" id="System-backto-Object3D" style="stroke:#000000;stroke-width:1.5625;"/><polygon fill="#000000" points="617.5469,371.6562,626.9219,377.9062,636.2969,371.6562,626.9219,365.4062,617.5469,371.6562" style="stroke:#000000;stroke-width:1.5625;"/><text fill="#000000" font-family="Verdana" font-size="15.625" lengthAdjust="spacing" textLength="67.9779" x="657.375" y="362.7222">gerencia</text><text fill="#000000" font-family="Verdana" font-size="15.625" lengthAdjust="spacing" textLength="9.9411" x="629.9163" y="368.3014">1</text><text fill="#000000" font-family="Verdana" font-size="15.625" lengthAdjust="spacing" textLength="7.8125" x="744.4028" y="368.0866">*</text></g><!--reverse link Object3D to Mesh--><g class="link" data-entity-1="Object3D" data-entity-2="Mesh" data-source-line="124" data-uid="lnk17" id="link_Object3D_Mesh"><path codeLine="124" d="M908.9731,496.9345 C922.8325,537.9345 933.3594,567.3437 949.7188,609.6406 C959.1406,634.0156 970.3438,660.5156 980.3594,683.4687" fill="none" id="Object3D-backto-Mesh" style="stroke:#000000;stroke-width:1.5625;"/><polygon fill="#000000" points="902.9688,479.1719,900.0501,490.0546,908.9731,496.9345,911.8918,486.0517,902.9688,479.1719" style="stroke:#000000;stroke-width:1.5625;"/><text fill="#000000" font-family="Verdana" font-size="15.625" lengthAdjust="spacing" textLength="50.0031" x="951.2813" y="605.3941">possui</text><text fill="#000000" font-family="Verdana" font-size="15.625" lengthAdjust="spacing" textLength="9.9411" x="896.6968" y="505.7003">1</text><text fill="#000000" font-family="Verdana" font-size="15.625" lengthAdjust="spacing" textLength="9.9411" x="964.9667" y="667.4259">1</text></g><!--reverse link Mesh to Group--><g class="link" data-entity-1="Mesh" data-entity-2="Group" data-source-line="125" data-uid="lnk18" id="link_Mesh_Group"><path codeLine="125" d="M1081.8866,820.4731 C1122.6835,860.77 1163.9063,901.5 1210.7656,947.7812" fill="none" id="Mesh-backto-Group" style="stroke:#000000;stroke-width:1.5625;"/><polygon fill="#000000" points="1068.5469,807.2969,1070.8247,818.3316,1081.8866,820.4731,1079.6088,809.4384,1068.5469,807.2969" style="stroke:#000000;stroke-width:1.5625;"/><text fill="#000000" font-family="Verdana" font-size="15.625" lengthAdjust="spacing" textLength="77.179" x="1160.6563" y="897.3316">divide em</text><text fill="#000000" font-family="Verdana" font-size="15.625" lengthAdjust="spacing" textLength="9.9411" x="1068.9033" y="833.9926">1</text><text fill="#000000" font-family="Verdana" font-size="15.625" lengthAdjust="spacing" textLength="7.8125" x="1190.4943" y="932.081">*</text></g><!--link Material to Group--><g class="link" data-entity-1="Material" data-entity-2="Group" data-source-line="126" data-uid="lnk20" id="link_Material_Group"><path codeLine="126" d="M1507.6719,826.0781 C1473.7344,863.4844 1445.4898,894.5983 1409.6929,934.0514" fill="none" id="Material-to-Group" style="stroke:#000000;stroke-width:1.5625;"/><polygon fill="#000000" points="1397.0938,947.9375,1408.022,945.1942,1409.6929,934.0514,1398.7647,936.7947,1397.0938,947.9375" style="stroke:#000000;stroke-width:1.5625;"/><text fill="#000000" font-family="Verdana" font-size="15.625" lengthAdjust="spacing" textLength="46.3409" x="1452.8438" y="897.3316">aplica</text><text fill="#000000" font-family="Verdana" font-size="15.625" lengthAdjust="spacing" textLength="9.9411" x="1488.5421" y="852.0766">1</text><text fill="#000000" font-family="Verdana" font-size="15.625" lengthAdjust="spacing" textLength="9.9411" x="1397.9079" y="932.2563">1</text></g><!--reverse link Group to Face--><g class="link" data-entity-1="Group" data-entity-2="Face" data-source-line="127" data-uid="lnk21" id="link_Group_Face"><path codeLine="127" d="M1309.0938,1163.8594 C1309.0938,1201.0938 1309.0938,1224.0625 1309.0938,1258.2188" fill="none" id="Group-backto-Face" style="stroke:#000000;stroke-width:1.5625;"/><polygon fill="#000000" points="1309.0938,1145.1094,1302.8438,1154.4844,1309.0938,1163.8594,1315.3438,1154.4844,1309.0938,1145.1094" style="stroke:#000000;stroke-width:1.5625;"/><text fill="#000000" font-family="Verdana" font-size="15.625" lengthAdjust="spacing" textLength="101.1734" x="1310.6563" y="1207.4722">composto de</text><text fill="#000000" font-family="Verdana" font-size="15.625" lengthAdjust="spacing" textLength="9.9411" x="1299.2379" y="1171.3943">1</text><text fill="#000000" font-family="Verdana" font-size="15.625" lengthAdjust="spacing" textLength="7.8125" x="1300.6359" y="1242.4139">*</text></g><!--link OBJReader to Mesh--><g class="link" data-entity-1="OBJReader" data-entity-2="Mesh" data-source-line="129" data-uid="lnk22" id="link_OBJReader_Mesh"><path codeLine="129" d="M1327.7031,424.7656 C1259.6406,492.5938 1146.8586,605.0223 1074.6868,676.9598" fill="none" id="OBJReader-to-Mesh" style="stroke:#000000;stroke-width:1.5625;stroke-dasharray:10.9375,10.9375;"/><polygon fill="#000000" points="1068.0469,683.5781,1082.4189,678.0772,1073.5801,678.0628,1073.5945,669.224,1068.0469,683.5781" style="stroke:#000000;stroke-width:1.5625;"/><text fill="#000000" font-family="Verdana" font-size="15.625" lengthAdjust="spacing" textLength="48.0499" x="1162.2188" y="605.3941">&#171;cria&#187;</text></g><!--link OBJReader to Material--><g class="link" data-entity-1="OBJReader" data-entity-2="Material" data-source-line="130" data-uid="lnk23" id="link_OBJReader_Material"><path codeLine="130" d="M1407.2188,424.7656 C1440.8125,487.0312 1493.2189,584.1875 1532.3595,656.7032" fill="none" id="OBJReader-to-Material" style="stroke:#000000;stroke-width:1.5625;stroke-dasharray:10.9375,10.9375;"/><polygon fill="#000000" points="1536.8125,664.9531,1535.633,649.6096,1533.1017,658.0782,1524.6331,655.5468,1536.8125,664.9531" style="stroke:#000000;stroke-width:1.5625;"/><text fill="#000000" font-family="Verdana" font-size="15.625" lengthAdjust="spacing" textLength="76.7059" x="1504.4063" y="605.3941">&#171;parseia&#187;</text></g><!--link Texture to Group--><g class="link" data-entity-1="Texture" data-entity-2="Group" data-source-line="131" data-uid="lnk24" id="link_Texture_Group"><path codeLine="131" d="M1309.0938,789.7031 C1309.0938,830.8906 1309.0938,885.3281 1309.0938,938.8281" fill="none" id="Texture-to-Group" style="stroke:#000000;stroke-width:1.5625;stroke-dasharray:10.9375,10.9375;"/><polygon fill="#000000" points="1309.0938,948.2031,1315.3438,934.1406,1309.0938,940.3906,1302.8438,934.1406,1309.0938,948.2031" style="stroke:#000000;stroke-width:1.5625;"/><text fill="#000000" font-family="Verdana" font-size="15.625" lengthAdjust="spacing" textLength="79.2389" x="1310.6563" y="897.3316">&#171;carrega&#187;</text></g><!--SRC=[ZLRDRkCs4BxhATZieLadMJH8zoAu1XJ5ThsnOyDEKw2NWfPecrc9L4dAtX_igS3kgPS-GdieUkXJ-4tw91t-IABiR5i7YCoPySmtyysC-8NQa9oW8iEK1V8rPGKME4TfGT7bowyyIP9XAIEb15sMYemIpXRq7K6-oH8dhzU2booDUSO5scse8hvJii9bfWQSAVFRooF_r__XmHfnaH9X3POP_C8pm4BmtTCgnXKvzFziy5B_7Lfv0Px5vXC4Nw9lp0V5usYnwAFPV7GNZsRHsCa3Wmqjtaf5SlG-GEW2xIXB-Iv4m_7WU_kzO-G9ped08OhDquXogFzYWo5kYEpJY6L269ak7qcYP8YsyE2YQyzNDprZKWZ-I1IXZNvc93Ip-eokDsh6hVgg4PdyFE6Ah_iCBpEIXcZ9UQQ55_3l35565SKPKAOJENrUwttLj21iE6ufCuvJcuiybdk9jPIGJaAa7B6YL5gnvJGr2a4OU6g9KYg1DLxBFdWqpVjtD_tvw8Te_sd_y_I090FAa7I6HZSXAfcaQqPIo4SrUPUIjC9ft0F1ymKC0LitiFsmW_qlYr4SjUDLXBY81PTGDSxgukjC15IYBPC5qLoi8AmFgaYn8gSfoHI-fpbfrKFWtQaqoVbYAYFmlIK-O0lCDg23DJk61TaovPs_Avg6iN1cbgvRydR9iKXRzNAw2OT2JlWMzWnhKpeawe6ItGH3GTzeJOxLrwroJgzVzU-d2tHrqwveDG8EEeCyGYGDBtOe3dEvG88hV22I2Sw8Tyw9t8He0l-R13NfDjffWTN6RrNNaSS5bqHLnVHxqqBNxjr-qAkeQEPsg8-z9ZHEKoFwjp6etHfBv_SXcfwZX-lfSMFh2XC14mjfkcz6hCWRLGhor2oW5GOMQv03E7aO8TMok2vNApVahM6fGjnRx_yh3-tViReb0d2DM4fz002hPzGLvi_f6HSvpZwZRahyOA8ymPC3xy3SOcyERbF_8Bt3dMmczWogNVoeRLrd-fqTH_DvVnXD-dVt1zi9UdvEwWNrNkgsJJvKhNZzgkf3rwUr0NGz5Z1fz-FA0i9tgpHwJMQEZgVSLqmv1wrUQ6_NSHIFfdSM_w9AmBtzJYvFKEVY0frqJfhT5w8r0T8JYe_CuEbMCeIKJ-hTfWeHN3pK_iyyQ1i9_KQp0UlLu0MiPTOQNiJCkZN36Efr8KiQc5FB1FpPmGfXHMzfIX390oknTXbPAUUgwfSGuIAZ2MxPDVvCW-iySeYgEDoAWg2X_CMBNWMgsqt0Nwztg6tYTBk6SMDKaQfDAiZW0Iv4PAtrWRxP80qNyPMxfW3_dKwiUuAW69Qpm5b7tr26hcxe4JEIuNDaT2a-1vsTM_eEx__O_yuHGMjW1dg75m5epFt9nLAyqA6gsfjWtr9WKVnKWc-efLOfBatCcgA_F_vgAw2_s4pqDrqsC8i1XfDgzkjYdBckrhSfKs6uR58680JT_yRMPSObEjt_PPV1yqEeIwuKppLQRojsEXCEhrdD49fjE5iRd7eFHFcIGaaq7ZtTDtHLIguFCFnzU6qdPORr_KqlWyK6xaWCNeDrp7y0]--></g></svg>