# Simple Cube OBJ

mtllib cube.mtl

# Coordenadas dos 8 vértices
v -1.0 -1.0  1.0
v  1.0 -1.0  1.0
v  1.0  1.0  1.0
v -1.0  1.0  1.0
v -1.0 -1.0 -1.0
v  1.0 -1.0 -1.0
v  1.0  1.0 -1.0
v -1.0  1.0 -1.0

# Coordenadas de textura (4 vertices por face)
vt 0.0 0.0
vt 1.0 0.0
vt 1.0 1.0
vt 0.0 1.0

# Coordenadas das normais (6 faces)
vn  0.0  0.0  1.0
vn  0.0  0.0 -1.0
vn  0.0  1.0  0.0
vn  0.0 -1.0  0.0
vn  1.0  0.0  0.0
vn -1.0  0.0  0.0

# Material a ser usado
usemtl CubeMaterial

# Indices das faces
# Face da frente
f 1/1/1 2/2/1 3/3/1 4/4/1

# Face de trás  
f 8/1/2 7/2/2 6/3/2 5/4/2

# Face do topo
f 4/1/3 3/2/3 7/3/3 8/4/3

# Face da base
f 1/1/4 5/2/4 6/3/4 2/4/4

# Face da direita
f 2/1/5 6/2/5 7/3/5 3/4/5

# Face da esquerda
f 5/1/6 1/2/6 4/3/6 8/4/6